# xmcd CD database file
#
# Track frame offsets:
#	150
#	12842
#	26110
#	39352
#	52560
#	66577
#	81005
#	97645
#	109465
#	121645
#	132700
#	148110
#
# Disc length: 2188 seconds
#
# Revision: 0
# Processed by: cddbd v1.5.2PL0 Copyright (c) Steve Scherf et al.
# Submitted via: CDex 1.51
#
DISCID=9a088a0c
DTITLE=N‰‰sville veljekset - Kantru
DYEAR=1998
DGENRE=Country
TTITLE0=Syyt‰ syd‰nt‰si
TTITLE1=Jaa toivo auringoksi meille
TTITLE2=Elvistell‰‰n
TTITLE3=Kantrin kaipuu
TTITLE4=Oregonin tie
TTITLE5=Ruutupaita ja mandoliini
TTITLE6=Balladi seilin saaresta
TTITLE7=Kauas matkustan
TTITLE8=Pahvilaatikko
TTITLE9=Kaikkien luusereiden ‰iti
TTITLE10=Vanhan rokkarin l‰hellevonkaamis laulu
TTITLE11=Oma maa
EXTD=YEAR: 1998
EXTT0=
EXTT1=
EXTT2=
EXTT3=
EXTT4=
EXTT5=
EXTT6=
EXTT7=
EXTT8=
EXTT9=
EXTT10=
EXTT11=
PLAYORDER=
